<?xml version="1.0" encoding="utf-8"?>
<!-- Generator: Adobe Illustrator 16.0.0, SVG Export Plug-In . SVG Version: 6.00 Build 0)  -->
<!DOCTYPE svg PUBLIC "-//W3C//DTD SVG 1.1//EN" "http://www.w3.org/Graphics/SVG/1.1/DTD/svg11.dtd">
<svg version="1.1" xmlns="http://www.w3.org/2000/svg" xmlns:xlink="http://www.w3.org/1999/xlink" x="0px" y="0px" width="13px"
	 height="18px" viewBox="0 0 13 18" enable-background="new 0 0 13 18" xml:space="preserve">
<g id="Layer_2" display="none">
	<rect x="0.5" y="-0.5" display="inline" stroke="#000000" stroke-miterlimit="10" width="13" height="18"/>
</g>
<g id="Layer_1">
	<g>
		<g>
			<path fill="none" stroke="#FFFFFF" stroke-width="0.7" stroke-linecap="round" stroke-miterlimit="10" d="M12.353,10.566
				c0.804-2.845-0.848-5.797-3.689-6.603"/>
			<path fill="none" stroke="#FFFFFF" stroke-width="0.7" stroke-linecap="round" stroke-miterlimit="10" d="M10.758,10.389
				c0.569-2.012-0.601-4.101-2.609-4.67"/>
			<path fill="none" stroke="#FFFFFF" stroke-width="0.7" stroke-linecap="round" stroke-miterlimit="10" d="M9.404,10.642
				c0.441-1.55-0.46-3.162-2.013-3.602"/>
			<path fill="none" stroke="#FFFFFF" stroke-width="0.7" stroke-linecap="round" stroke-miterlimit="10" d="M7.887,10.596
				c0.235-0.832-0.249-1.699-1.082-1.933"/>
		</g>
		<path fill="#FFFFFF" d="M2.877,12.652c0,0,0.191,1.249,0.561,1.686c1.726-0.437,3.165-1.43,3.585-2
			C7.283,11.714,6.67,9.988,6.427,10C6.283,10.225,3.677,12.258,2.877,12.652z"/>
		<path fill="#FFFFFF" d="M3.605,14.552c1.816-0.561,2.979-1.182,3.537-1.921c0.364,1.486-1.096,2.423-1.028,2.915
			c0.068,0.486,0.338,0.285,0.218,0.447C6.209,16.157,3.538,14.781,3.605,14.552z"/>
		<path fill="#FFFFFF" d="M2.798,12.379c1.02-0.407,3.101-2.129,3.431-2.581C6.334,9.3,6.127,7.648,5.402,7.307
			C5.037,7.158,5.536,7.174,3.714,8.584C2.614,11.058,2.798,12.379,2.798,12.379z"/>
		<g>
			<path fill="#FFFFFF" d="M3.327,4.991c0,0,0.023-0.212-0.003-0.525C3.287,4.158,3.217,3.741,2.999,3.431
				c-0.11-0.153-0.248-0.27-0.385-0.359C2.56,3.007,2.477,2.985,2.419,2.929c-0.058-0.057-0.13-0.086-0.193-0.123
				C2.105,2.717,1.983,2.673,1.901,2.618C1.817,2.57,1.767,2.533,1.767,2.533l0.005-0.05c0,0,0.055-0.02,0.155-0.039
				C2.028,2.422,2.174,2.4,2.352,2.43c0.175,0.022,0.389,0.087,0.577,0.228C3.114,2.803,3.256,3.02,3.35,3.24
				c0.197,0.442,0.194,0.907,0.148,1.23C3.45,4.797,3.375,5.001,3.375,5.001L3.327,4.991z"/>
		</g>
		<g>
			<path fill="#FFFFFF" d="M2.515,6c0,0-0.017-0.415-0.093-0.735C2.344,4.948,2.215,4.43,1.978,4.104
				C1.857,3.944,1.71,3.773,1.568,3.69C1.434,3.596,1.299,3.482,1.16,3.436C1.09,3.417,1.027,3.359,0.966,3.343
				C0.904,3.33,0.848,3.308,0.801,3.29C0.707,3.259,0.647,3.23,0.647,3.23L0.641,3.179c0.001,0.016,0.204-0.158,0.591-0.157
				c0.187,0,0.428,0.048,0.633,0.192c0.204,0.146,0.353,0.368,0.457,0.588c0.212,0.444,0.276,1.1,0.273,1.441
				C2.598,5.584,2.564,6,2.564,6H2.515z"/>
		</g>
		<path fill="#FFFFFF" d="M5.492,5.98C4.972,4.728,3.42,4.567,2.337,5.354c-1.32,1.47-0.467,3.392,0.115,3.487
			C3.255,8.972,5.606,7.111,5.492,5.98z M3.59,6.974c-0.277,0-0.196-0.605-0.154-0.761c0.042-0.156,0.225-0.5,0.5-0.5
			c0.277,0,0.499,0.224,0.499,0.5C4.435,6.489,3.866,6.974,3.59,6.974z"/>
	</g>
</g>
</svg>
